<mxfile host="app.diagrams.net" modified="2023-11-06T14:14:53.980Z" agent="Mozilla/5.0 (Windows NT 10.0; Win64; x64; rv:109.0) Gecko/20100101 Firefox/119.0" etag="O_XPA0fi31drXxAYOQMh" version="22.0.8" type="github">
  <diagram id="C5RBs43oDa-KdzZeNtuy" name="Page-1">
    <mxGraphModel dx="3263" dy="2363" grid="1" gridSize="10" guides="1" tooltips="1" connect="1" arrows="1" fold="1" page="1" pageScale="1" pageWidth="827" pageHeight="1169" math="0" shadow="0">
      <root>
        <mxCell id="WIyWlLk6GJQsqaUBKTNV-0" />
        <mxCell id="WIyWlLk6GJQsqaUBKTNV-1" parent="WIyWlLk6GJQsqaUBKTNV-0" />
        <mxCell id="WIyWlLk6GJQsqaUBKTNV-2" value="" style="rounded=0;html=1;jettySize=auto;orthogonalLoop=1;fontSize=11;endArrow=block;endFill=0;endSize=8;strokeWidth=1;shadow=0;labelBackgroundColor=none;edgeStyle=orthogonalEdgeStyle;entryX=0.5;entryY=0;entryDx=0;entryDy=0;exitX=0.481;exitY=0.972;exitDx=0;exitDy=0;exitPerimeter=0;" parent="WIyWlLk6GJQsqaUBKTNV-1" target="eA1Nt5mad9_NSeWrWCWu-1" edge="1" source="WIyWlLk6GJQsqaUBKTNV-3">
          <mxGeometry relative="1" as="geometry">
            <mxPoint x="350" y="120" as="sourcePoint" />
            <mxPoint x="220" y="150" as="targetPoint" />
            <Array as="points">
              <mxPoint x="350" y="88" />
              <mxPoint x="350" y="140" />
              <mxPoint x="180" y="140" />
            </Array>
          </mxGeometry>
        </mxCell>
        <mxCell id="WIyWlLk6GJQsqaUBKTNV-3" value="Hi &lt;u&gt;&lt;i&gt;$customerName&lt;/i&gt;&lt;/u&gt;,&lt;br&gt;1. How may I assist you today ?&lt;br&gt;2. How can I help you today ?&amp;nbsp;" style="rounded=1;whiteSpace=wrap;html=1;fontSize=12;glass=0;strokeWidth=1;shadow=0;" parent="WIyWlLk6GJQsqaUBKTNV-1" vertex="1">
          <mxGeometry x="180" y="30" width="350" height="60" as="geometry" />
        </mxCell>
        <mxCell id="eA1Nt5mad9_NSeWrWCWu-0" value="" style="rounded=0;html=1;jettySize=auto;orthogonalLoop=1;fontSize=11;endArrow=block;endFill=0;endSize=8;strokeWidth=1;shadow=0;labelBackgroundColor=none;edgeStyle=orthogonalEdgeStyle;exitX=0.5;exitY=1;exitDx=0;exitDy=0;entryX=0.5;entryY=0;entryDx=0;entryDy=0;" parent="WIyWlLk6GJQsqaUBKTNV-1" source="WIyWlLk6GJQsqaUBKTNV-3" target="eA1Nt5mad9_NSeWrWCWu-2" edge="1">
          <mxGeometry relative="1" as="geometry">
            <mxPoint x="264.01" y="180" as="sourcePoint" />
            <mxPoint x="355" y="300" as="targetPoint" />
          </mxGeometry>
        </mxCell>
        <mxCell id="eA1Nt5mad9_NSeWrWCWu-13" value="" style="edgeStyle=orthogonalEdgeStyle;rounded=0;orthogonalLoop=1;jettySize=auto;html=1;" parent="WIyWlLk6GJQsqaUBKTNV-1" source="eA1Nt5mad9_NSeWrWCWu-1" target="eA1Nt5mad9_NSeWrWCWu-6" edge="1">
          <mxGeometry relative="1" as="geometry" />
        </mxCell>
        <mxCell id="eA1Nt5mad9_NSeWrWCWu-1" value="Build New PC" style="rounded=1;whiteSpace=wrap;html=1;fontSize=12;glass=0;strokeWidth=1;shadow=0;arcSize=0;" parent="WIyWlLk6GJQsqaUBKTNV-1" vertex="1">
          <mxGeometry x="140" y="200" width="80" height="20" as="geometry" />
        </mxCell>
        <mxCell id="eA1Nt5mad9_NSeWrWCWu-2" value="Buy PC Parts" style="rounded=1;whiteSpace=wrap;html=1;fontSize=12;glass=0;strokeWidth=1;shadow=0;arcSize=0;" parent="WIyWlLk6GJQsqaUBKTNV-1" vertex="1">
          <mxGeometry x="315" y="200" width="80" height="20" as="geometry" />
        </mxCell>
        <mxCell id="eA1Nt5mad9_NSeWrWCWu-4" value="Other Matters&lt;br&gt;" style="rounded=1;whiteSpace=wrap;html=1;fontSize=12;glass=0;strokeWidth=1;shadow=0;arcSize=0;" parent="WIyWlLk6GJQsqaUBKTNV-1" vertex="1">
          <mxGeometry x="490" y="200" width="80" height="20" as="geometry" />
        </mxCell>
        <mxCell id="eA1Nt5mad9_NSeWrWCWu-6" value="Great ! We have 3 base models for you to choose.&lt;br&gt;&lt;br&gt;Please click on ‘Catalog’ Button to see the detailed configuration of each model. &lt;i&gt;&lt;u&gt;*Will be great if can generate pdf directly to telegram instead*&lt;/u&gt;&lt;/i&gt;" style="rounded=1;whiteSpace=wrap;html=1;fontSize=12;glass=0;strokeWidth=1;shadow=0;align=left;" parent="WIyWlLk6GJQsqaUBKTNV-1" vertex="1">
          <mxGeometry x="-370" y="310" width="385" height="110" as="geometry" />
        </mxCell>
        <mxCell id="RRfECDt-pzKWjX6GJz46-7" style="edgeStyle=orthogonalEdgeStyle;rounded=0;orthogonalLoop=1;jettySize=auto;html=1;exitX=0.5;exitY=1;exitDx=0;exitDy=0;entryX=0;entryY=0.5;entryDx=0;entryDy=0;" edge="1" parent="WIyWlLk6GJQsqaUBKTNV-1" source="eA1Nt5mad9_NSeWrWCWu-7" target="RRfECDt-pzKWjX6GJz46-6">
          <mxGeometry relative="1" as="geometry" />
        </mxCell>
        <mxCell id="eA1Nt5mad9_NSeWrWCWu-7" value="Business" style="rounded=1;whiteSpace=wrap;html=1;fontSize=12;glass=0;strokeWidth=1;shadow=0;arcSize=0;" parent="WIyWlLk6GJQsqaUBKTNV-1" vertex="1">
          <mxGeometry x="-240" y="600" width="80" height="40" as="geometry" />
        </mxCell>
        <mxCell id="RRfECDt-pzKWjX6GJz46-8" style="edgeStyle=orthogonalEdgeStyle;rounded=0;orthogonalLoop=1;jettySize=auto;html=1;entryX=0.5;entryY=0;entryDx=0;entryDy=0;" edge="1" parent="WIyWlLk6GJQsqaUBKTNV-1" source="eA1Nt5mad9_NSeWrWCWu-8" target="RRfECDt-pzKWjX6GJz46-6">
          <mxGeometry relative="1" as="geometry" />
        </mxCell>
        <mxCell id="eA1Nt5mad9_NSeWrWCWu-8" value="Gaming" style="rounded=1;whiteSpace=wrap;html=1;fontSize=12;glass=0;strokeWidth=1;shadow=0;arcSize=0;" parent="WIyWlLk6GJQsqaUBKTNV-1" vertex="1">
          <mxGeometry x="-100" y="600" width="80" height="40" as="geometry" />
        </mxCell>
        <mxCell id="RRfECDt-pzKWjX6GJz46-11" style="edgeStyle=orthogonalEdgeStyle;rounded=0;orthogonalLoop=1;jettySize=auto;html=1;exitX=0.5;exitY=1;exitDx=0;exitDy=0;entryX=1;entryY=0.5;entryDx=0;entryDy=0;" edge="1" parent="WIyWlLk6GJQsqaUBKTNV-1" source="eA1Nt5mad9_NSeWrWCWu-9" target="RRfECDt-pzKWjX6GJz46-6">
          <mxGeometry relative="1" as="geometry" />
        </mxCell>
        <mxCell id="eA1Nt5mad9_NSeWrWCWu-9" value="Ultimate" style="rounded=1;whiteSpace=wrap;html=1;fontSize=12;glass=0;strokeWidth=1;shadow=0;arcSize=0;" parent="WIyWlLk6GJQsqaUBKTNV-1" vertex="1">
          <mxGeometry x="40" y="600" width="80" height="40" as="geometry" />
        </mxCell>
        <mxCell id="eA1Nt5mad9_NSeWrWCWu-15" value="&lt;b&gt;&lt;u&gt;Allow&lt;/u&gt;&lt;/b&gt;&lt;br&gt;&amp;nbsp;1. Using Voice to provide option&lt;br&gt;&amp;nbsp;2. asdf&lt;br&gt;&lt;br&gt;&lt;br&gt;&lt;b&gt;&lt;u&gt;Disallow&lt;/u&gt;&lt;/b&gt;&lt;br&gt;&amp;nbsp;1. Profanity Language&lt;br&gt;&amp;nbsp;2. Religion&lt;br&gt;&amp;nbsp;3. Sexual remark ~ Same as 1" style="rounded=0;whiteSpace=wrap;html=1;align=left;" parent="WIyWlLk6GJQsqaUBKTNV-1" vertex="1">
          <mxGeometry x="-820" y="40" width="200" height="270" as="geometry" />
        </mxCell>
        <mxCell id="eA1Nt5mad9_NSeWrWCWu-17" value="&lt;i&gt;&amp;lt;&amp;lt;Hyperlink&amp;gt;&amp;gt;&lt;/i&gt;&lt;br&gt;Catalog" style="rounded=1;whiteSpace=wrap;html=1;fontSize=12;glass=0;strokeWidth=1;shadow=0;arcSize=0;" parent="WIyWlLk6GJQsqaUBKTNV-1" vertex="1">
          <mxGeometry x="-440" y="600" width="120" height="40" as="geometry" />
        </mxCell>
        <mxCell id="RRfECDt-pzKWjX6GJz46-1" value="" style="edgeStyle=orthogonalEdgeStyle;rounded=0;orthogonalLoop=1;jettySize=auto;html=1;exitX=0.5;exitY=1;exitDx=0;exitDy=0;entryX=0.5;entryY=0;entryDx=0;entryDy=0;" edge="1" parent="WIyWlLk6GJQsqaUBKTNV-1" source="eA1Nt5mad9_NSeWrWCWu-6" target="eA1Nt5mad9_NSeWrWCWu-17">
          <mxGeometry relative="1" as="geometry">
            <mxPoint x="-410" y="430" as="sourcePoint" />
            <mxPoint x="-597" y="500" as="targetPoint" />
            <Array as="points">
              <mxPoint x="-177" y="460" />
              <mxPoint x="-380" y="460" />
            </Array>
          </mxGeometry>
        </mxCell>
        <mxCell id="RRfECDt-pzKWjX6GJz46-2" value="" style="edgeStyle=orthogonalEdgeStyle;rounded=0;orthogonalLoop=1;jettySize=auto;html=1;exitX=0.5;exitY=1;exitDx=0;exitDy=0;entryX=0.5;entryY=0;entryDx=0;entryDy=0;" edge="1" parent="WIyWlLk6GJQsqaUBKTNV-1" source="eA1Nt5mad9_NSeWrWCWu-6" target="eA1Nt5mad9_NSeWrWCWu-7">
          <mxGeometry relative="1" as="geometry">
            <mxPoint x="-167" y="430" as="sourcePoint" />
            <mxPoint x="-470" y="575" as="targetPoint" />
            <Array as="points">
              <mxPoint x="-177" y="460" />
              <mxPoint x="-200" y="460" />
            </Array>
          </mxGeometry>
        </mxCell>
        <mxCell id="RRfECDt-pzKWjX6GJz46-3" value="" style="edgeStyle=orthogonalEdgeStyle;rounded=0;orthogonalLoop=1;jettySize=auto;html=1;entryX=0.5;entryY=0;entryDx=0;entryDy=0;exitX=0.5;exitY=1;exitDx=0;exitDy=0;" edge="1" parent="WIyWlLk6GJQsqaUBKTNV-1" source="eA1Nt5mad9_NSeWrWCWu-6" target="eA1Nt5mad9_NSeWrWCWu-8">
          <mxGeometry relative="1" as="geometry">
            <mxPoint x="-180" y="430" as="sourcePoint" />
            <mxPoint x="-460" y="605" as="targetPoint" />
            <Array as="points">
              <mxPoint x="-177" y="460" />
              <mxPoint x="-60" y="460" />
            </Array>
          </mxGeometry>
        </mxCell>
        <mxCell id="RRfECDt-pzKWjX6GJz46-4" value="" style="edgeStyle=orthogonalEdgeStyle;rounded=0;orthogonalLoop=1;jettySize=auto;html=1;exitX=0.5;exitY=1;exitDx=0;exitDy=0;entryX=0.5;entryY=0;entryDx=0;entryDy=0;" edge="1" parent="WIyWlLk6GJQsqaUBKTNV-1" source="eA1Nt5mad9_NSeWrWCWu-6" target="eA1Nt5mad9_NSeWrWCWu-9">
          <mxGeometry relative="1" as="geometry">
            <mxPoint x="-180" y="540" as="sourcePoint" />
            <mxPoint x="-220" y="870" as="targetPoint" />
            <Array as="points">
              <mxPoint x="-177" y="460" />
              <mxPoint x="80" y="460" />
            </Array>
          </mxGeometry>
        </mxCell>
        <mxCell id="RRfECDt-pzKWjX6GJz46-15" style="edgeStyle=orthogonalEdgeStyle;rounded=0;orthogonalLoop=1;jettySize=auto;html=1;entryX=0.5;entryY=0;entryDx=0;entryDy=0;" edge="1" parent="WIyWlLk6GJQsqaUBKTNV-1" source="RRfECDt-pzKWjX6GJz46-5" target="RRfECDt-pzKWjX6GJz46-14">
          <mxGeometry relative="1" as="geometry" />
        </mxCell>
        <mxCell id="RRfECDt-pzKWjX6GJz46-5" value="You have selected &lt;i&gt;&lt;u&gt;$pcModelType&lt;/u&gt;&lt;/i&gt; as your base model. Will you like to confirm your model ?" style="rounded=1;whiteSpace=wrap;html=1;fontSize=12;glass=0;strokeWidth=1;shadow=0;align=left;" vertex="1" parent="WIyWlLk6GJQsqaUBKTNV-1">
          <mxGeometry x="-240" y="800" width="360" height="110" as="geometry" />
        </mxCell>
        <mxCell id="RRfECDt-pzKWjX6GJz46-10" style="edgeStyle=orthogonalEdgeStyle;rounded=0;orthogonalLoop=1;jettySize=auto;html=1;exitX=0.5;exitY=1;exitDx=0;exitDy=0;" edge="1" parent="WIyWlLk6GJQsqaUBKTNV-1" source="RRfECDt-pzKWjX6GJz46-6" target="RRfECDt-pzKWjX6GJz46-5">
          <mxGeometry relative="1" as="geometry" />
        </mxCell>
        <mxCell id="RRfECDt-pzKWjX6GJz46-6" value="" style="ellipse;whiteSpace=wrap;html=1;aspect=fixed;" vertex="1" parent="WIyWlLk6GJQsqaUBKTNV-1">
          <mxGeometry x="-80" y="720" width="40" height="40" as="geometry" />
        </mxCell>
        <mxCell id="RRfECDt-pzKWjX6GJz46-20" style="edgeStyle=orthogonalEdgeStyle;rounded=0;orthogonalLoop=1;jettySize=auto;html=1;entryX=0;entryY=0.5;entryDx=0;entryDy=0;" edge="1" parent="WIyWlLk6GJQsqaUBKTNV-1" source="RRfECDt-pzKWjX6GJz46-12" target="eA1Nt5mad9_NSeWrWCWu-6">
          <mxGeometry relative="1" as="geometry">
            <mxPoint x="-320" y="1050" as="targetPoint" />
            <Array as="points">
              <mxPoint x="-279" y="1050" />
              <mxPoint x="-480" y="1051" />
              <mxPoint x="-480" y="365" />
            </Array>
          </mxGeometry>
        </mxCell>
        <mxCell id="RRfECDt-pzKWjX6GJz46-24" value="Yes" style="edgeLabel;html=1;align=center;verticalAlign=middle;resizable=0;points=[];" vertex="1" connectable="0" parent="RRfECDt-pzKWjX6GJz46-20">
          <mxGeometry x="-0.0669" y="2" relative="1" as="geometry">
            <mxPoint x="272" y="230" as="offset" />
          </mxGeometry>
        </mxCell>
        <mxCell id="RRfECDt-pzKWjX6GJz46-22" style="edgeStyle=orthogonalEdgeStyle;rounded=0;orthogonalLoop=1;jettySize=auto;html=1;exitX=0.5;exitY=1;exitDx=0;exitDy=0;entryX=0.5;entryY=0;entryDx=0;entryDy=0;" edge="1" parent="WIyWlLk6GJQsqaUBKTNV-1" source="RRfECDt-pzKWjX6GJz46-12" target="RRfECDt-pzKWjX6GJz46-30">
          <mxGeometry relative="1" as="geometry">
            <mxPoint x="-160" y="1130" as="targetPoint" />
          </mxGeometry>
        </mxCell>
        <mxCell id="RRfECDt-pzKWjX6GJz46-23" value="No" style="edgeLabel;html=1;align=center;verticalAlign=middle;resizable=0;points=[];" vertex="1" connectable="0" parent="RRfECDt-pzKWjX6GJz46-22">
          <mxGeometry x="0.0098" y="5" relative="1" as="geometry">
            <mxPoint x="4" y="-5" as="offset" />
          </mxGeometry>
        </mxCell>
        <mxCell id="RRfECDt-pzKWjX6GJz46-12" value="Understood. Will you like to reconsider selecting a base model ?" style="rounded=1;whiteSpace=wrap;html=1;fontSize=12;glass=0;strokeWidth=1;shadow=0;" vertex="1" parent="WIyWlLk6GJQsqaUBKTNV-1">
          <mxGeometry x="-240" y="1020" width="160" height="60" as="geometry" />
        </mxCell>
        <mxCell id="RRfECDt-pzKWjX6GJz46-26" style="edgeStyle=orthogonalEdgeStyle;rounded=0;orthogonalLoop=1;jettySize=auto;html=1;entryX=0;entryY=0.5;entryDx=0;entryDy=0;" edge="1" parent="WIyWlLk6GJQsqaUBKTNV-1" source="RRfECDt-pzKWjX6GJz46-13" target="RRfECDt-pzKWjX6GJz46-53">
          <mxGeometry relative="1" as="geometry">
            <mxPoint x="230" y="1050" as="targetPoint" />
          </mxGeometry>
        </mxCell>
        <mxCell id="RRfECDt-pzKWjX6GJz46-27" value="Yes" style="edgeLabel;html=1;align=center;verticalAlign=middle;resizable=0;points=[];" vertex="1" connectable="0" parent="RRfECDt-pzKWjX6GJz46-26">
          <mxGeometry x="-0.2157" y="-2" relative="1" as="geometry">
            <mxPoint x="-3" y="-12" as="offset" />
          </mxGeometry>
        </mxCell>
        <mxCell id="RRfECDt-pzKWjX6GJz46-56" style="edgeStyle=orthogonalEdgeStyle;rounded=0;orthogonalLoop=1;jettySize=auto;html=1;" edge="1" parent="WIyWlLk6GJQsqaUBKTNV-1" source="RRfECDt-pzKWjX6GJz46-13" target="RRfECDt-pzKWjX6GJz46-55">
          <mxGeometry relative="1" as="geometry" />
        </mxCell>
        <mxCell id="RRfECDt-pzKWjX6GJz46-57" value="No" style="edgeLabel;html=1;align=center;verticalAlign=middle;resizable=0;points=[];" vertex="1" connectable="0" parent="RRfECDt-pzKWjX6GJz46-56">
          <mxGeometry x="-0.1233" y="-2" relative="1" as="geometry">
            <mxPoint x="-18" y="-17" as="offset" />
          </mxGeometry>
        </mxCell>
        <mxCell id="RRfECDt-pzKWjX6GJz46-13" value="Awesome !!&lt;br&gt;Will you like to modify ?" style="rounded=1;whiteSpace=wrap;html=1;fontSize=12;glass=0;strokeWidth=1;shadow=0;" vertex="1" parent="WIyWlLk6GJQsqaUBKTNV-1">
          <mxGeometry x="-40" y="1020" width="160" height="60" as="geometry" />
        </mxCell>
        <mxCell id="RRfECDt-pzKWjX6GJz46-16" style="edgeStyle=orthogonalEdgeStyle;rounded=0;orthogonalLoop=1;jettySize=auto;html=1;exitX=0;exitY=0.5;exitDx=0;exitDy=0;" edge="1" parent="WIyWlLk6GJQsqaUBKTNV-1" source="RRfECDt-pzKWjX6GJz46-14" target="RRfECDt-pzKWjX6GJz46-12">
          <mxGeometry relative="1" as="geometry" />
        </mxCell>
        <mxCell id="RRfECDt-pzKWjX6GJz46-19" value="No" style="edgeLabel;html=1;align=center;verticalAlign=middle;resizable=0;points=[];" vertex="1" connectable="0" parent="RRfECDt-pzKWjX6GJz46-16">
          <mxGeometry x="-0.4762" relative="1" as="geometry">
            <mxPoint x="-9" y="-10" as="offset" />
          </mxGeometry>
        </mxCell>
        <mxCell id="RRfECDt-pzKWjX6GJz46-17" style="edgeStyle=orthogonalEdgeStyle;rounded=0;orthogonalLoop=1;jettySize=auto;html=1;exitX=1;exitY=0.5;exitDx=0;exitDy=0;" edge="1" parent="WIyWlLk6GJQsqaUBKTNV-1" source="RRfECDt-pzKWjX6GJz46-14" target="RRfECDt-pzKWjX6GJz46-13">
          <mxGeometry relative="1" as="geometry" />
        </mxCell>
        <mxCell id="RRfECDt-pzKWjX6GJz46-18" value="Yes" style="edgeLabel;html=1;align=center;verticalAlign=middle;resizable=0;points=[];" vertex="1" connectable="0" parent="RRfECDt-pzKWjX6GJz46-17">
          <mxGeometry x="-0.3095" y="-1" relative="1" as="geometry">
            <mxPoint x="-1" y="-11" as="offset" />
          </mxGeometry>
        </mxCell>
        <mxCell id="RRfECDt-pzKWjX6GJz46-14" value="" style="ellipse;whiteSpace=wrap;html=1;aspect=fixed;" vertex="1" parent="WIyWlLk6GJQsqaUBKTNV-1">
          <mxGeometry x="-80" y="960" width="40" height="40" as="geometry" />
        </mxCell>
        <mxCell id="RRfECDt-pzKWjX6GJz46-32" style="edgeStyle=orthogonalEdgeStyle;rounded=0;orthogonalLoop=1;jettySize=auto;html=1;entryX=0;entryY=0.25;entryDx=0;entryDy=0;" edge="1" parent="WIyWlLk6GJQsqaUBKTNV-1" source="RRfECDt-pzKWjX6GJz46-30" target="RRfECDt-pzKWjX6GJz46-41">
          <mxGeometry relative="1" as="geometry">
            <mxPoint x="-160" y="1300.0000000000005" as="targetPoint" />
            <Array as="points">
              <mxPoint x="-590" y="1180" />
              <mxPoint x="-590" y="-40" />
              <mxPoint x="560" y="-40" />
              <mxPoint x="560" y="45" />
            </Array>
          </mxGeometry>
        </mxCell>
        <mxCell id="RRfECDt-pzKWjX6GJz46-47" style="edgeStyle=orthogonalEdgeStyle;rounded=0;orthogonalLoop=1;jettySize=auto;html=1;entryX=0;entryY=0.5;entryDx=0;entryDy=0;" edge="1" parent="WIyWlLk6GJQsqaUBKTNV-1" source="RRfECDt-pzKWjX6GJz46-30" target="WIyWlLk6GJQsqaUBKTNV-3">
          <mxGeometry relative="1" as="geometry">
            <Array as="points">
              <mxPoint x="-160" y="1260" />
              <mxPoint x="-540" y="1260" />
              <mxPoint x="-540" y="60" />
            </Array>
          </mxGeometry>
        </mxCell>
        <mxCell id="RRfECDt-pzKWjX6GJz46-30" value="Understood. Is there anything else I can do for you ?" style="rounded=1;whiteSpace=wrap;html=1;fontSize=12;glass=0;strokeWidth=1;shadow=0;" vertex="1" parent="WIyWlLk6GJQsqaUBKTNV-1">
          <mxGeometry x="-240" y="1150" width="160" height="60" as="geometry" />
        </mxCell>
        <mxCell id="RRfECDt-pzKWjX6GJz46-35" value="" style="rounded=0;html=1;jettySize=auto;orthogonalLoop=1;fontSize=11;endArrow=block;endFill=0;endSize=8;strokeWidth=1;shadow=0;labelBackgroundColor=none;edgeStyle=orthogonalEdgeStyle;exitX=0.519;exitY=1.028;exitDx=0;exitDy=0;entryX=0.5;entryY=0;entryDx=0;entryDy=0;exitPerimeter=0;" edge="1" parent="WIyWlLk6GJQsqaUBKTNV-1" source="WIyWlLk6GJQsqaUBKTNV-3" target="eA1Nt5mad9_NSeWrWCWu-4">
          <mxGeometry relative="1" as="geometry">
            <mxPoint x="430" y="110" as="sourcePoint" />
            <mxPoint x="430" y="220" as="targetPoint" />
            <Array as="points">
              <mxPoint x="362" y="140" />
              <mxPoint x="530" y="140" />
            </Array>
          </mxGeometry>
        </mxCell>
        <mxCell id="RRfECDt-pzKWjX6GJz46-49" style="edgeStyle=orthogonalEdgeStyle;rounded=0;orthogonalLoop=1;jettySize=auto;html=1;exitX=0.5;exitY=1;exitDx=0;exitDy=0;" edge="1" parent="WIyWlLk6GJQsqaUBKTNV-1" source="RRfECDt-pzKWjX6GJz46-38" target="WIyWlLk6GJQsqaUBKTNV-3">
          <mxGeometry relative="1" as="geometry" />
        </mxCell>
        <mxCell id="RRfECDt-pzKWjX6GJz46-52" value="&lt;div&gt;Yes&lt;/div&gt;Output : customerName" style="edgeLabel;html=1;align=center;verticalAlign=middle;resizable=0;points=[];" vertex="1" connectable="0" parent="RRfECDt-pzKWjX6GJz46-49">
          <mxGeometry x="-0.5765" y="4" relative="1" as="geometry">
            <mxPoint x="55" as="offset" />
          </mxGeometry>
        </mxCell>
        <mxCell id="RRfECDt-pzKWjX6GJz46-50" style="edgeStyle=orthogonalEdgeStyle;rounded=0;orthogonalLoop=1;jettySize=auto;html=1;exitX=1;exitY=0.5;exitDx=0;exitDy=0;entryX=0;entryY=0.5;entryDx=0;entryDy=0;" edge="1" parent="WIyWlLk6GJQsqaUBKTNV-1" source="RRfECDt-pzKWjX6GJz46-38" target="RRfECDt-pzKWjX6GJz46-54">
          <mxGeometry relative="1" as="geometry">
            <mxPoint x="640" y="-130.36842105263167" as="targetPoint" />
          </mxGeometry>
        </mxCell>
        <mxCell id="RRfECDt-pzKWjX6GJz46-51" value="No" style="edgeLabel;html=1;align=center;verticalAlign=middle;resizable=0;points=[];" vertex="1" connectable="0" parent="RRfECDt-pzKWjX6GJz46-50">
          <mxGeometry x="-0.3177" y="-2" relative="1" as="geometry">
            <mxPoint x="2" y="-12" as="offset" />
          </mxGeometry>
        </mxCell>
        <mxCell id="RRfECDt-pzKWjX6GJz46-38" value="&lt;div&gt;Thank you for showing your interest in SuperPC. This is SusanBotty.&lt;/div&gt;&lt;div&gt;May I have your name ?&lt;br&gt;&lt;/div&gt;" style="rounded=1;whiteSpace=wrap;html=1;fontSize=12;glass=0;strokeWidth=1;shadow=0;" vertex="1" parent="WIyWlLk6GJQsqaUBKTNV-1">
          <mxGeometry x="180" y="-160" width="350" height="60" as="geometry" />
        </mxCell>
        <mxCell id="RRfECDt-pzKWjX6GJz46-41" value="&lt;div&gt;Thank you &lt;u&gt;&lt;i&gt;$customerName&lt;/i&gt;&lt;/u&gt; for chatting with me.&amp;nbsp;&lt;/div&gt;&lt;div&gt;Have a great day !!!&lt;br&gt;&lt;/div&gt;" style="rounded=1;whiteSpace=wrap;html=1;fontSize=12;glass=0;strokeWidth=1;shadow=0;" vertex="1" parent="WIyWlLk6GJQsqaUBKTNV-1">
          <mxGeometry x="690" y="30" width="270" height="60" as="geometry" />
        </mxCell>
        <mxCell id="RRfECDt-pzKWjX6GJz46-43" value="" style="rounded=0;html=1;jettySize=auto;orthogonalLoop=1;fontSize=11;endArrow=block;endFill=0;endSize=8;strokeWidth=1;shadow=0;labelBackgroundColor=none;edgeStyle=orthogonalEdgeStyle;entryX=0;entryY=0.5;entryDx=0;entryDy=0;" edge="1" parent="WIyWlLk6GJQsqaUBKTNV-1" source="WIyWlLk6GJQsqaUBKTNV-3" target="RRfECDt-pzKWjX6GJz46-41">
          <mxGeometry relative="1" as="geometry">
            <mxPoint x="580" y="300" as="sourcePoint" />
            <mxPoint x="748" y="408" as="targetPoint" />
            <Array as="points" />
          </mxGeometry>
        </mxCell>
        <mxCell id="RRfECDt-pzKWjX6GJz46-44" value="Nope I am Good" style="edgeLabel;html=1;align=center;verticalAlign=middle;resizable=0;points=[];" vertex="1" connectable="0" parent="RRfECDt-pzKWjX6GJz46-43">
          <mxGeometry x="-0.1364" y="2" relative="1" as="geometry">
            <mxPoint y="-8" as="offset" />
          </mxGeometry>
        </mxCell>
        <mxCell id="RRfECDt-pzKWjX6GJz46-46" value="Nope I am Good" style="edgeLabel;html=1;align=center;verticalAlign=middle;resizable=0;points=[];" vertex="1" connectable="0" parent="WIyWlLk6GJQsqaUBKTNV-1">
          <mxGeometry x="-289.9963157894738" y="1160" as="geometry" />
        </mxCell>
        <mxCell id="RRfECDt-pzKWjX6GJz46-48" value="Yes" style="edgeLabel;html=1;align=center;verticalAlign=middle;resizable=0;points=[];" vertex="1" connectable="0" parent="WIyWlLk6GJQsqaUBKTNV-1">
          <mxGeometry x="-177.49631578947378" y="1250" as="geometry" />
        </mxCell>
        <mxCell id="RRfECDt-pzKWjX6GJz46-53" value="?" style="ellipse;whiteSpace=wrap;html=1;aspect=fixed;" vertex="1" parent="WIyWlLk6GJQsqaUBKTNV-1">
          <mxGeometry x="180" y="1030" width="40" height="40" as="geometry" />
        </mxCell>
        <mxCell id="RRfECDt-pzKWjX6GJz46-54" value="?" style="ellipse;whiteSpace=wrap;html=1;aspect=fixed;" vertex="1" parent="WIyWlLk6GJQsqaUBKTNV-1">
          <mxGeometry x="620" y="-150" width="40" height="40" as="geometry" />
        </mxCell>
        <mxCell id="RRfECDt-pzKWjX6GJz46-58" style="edgeStyle=orthogonalEdgeStyle;rounded=0;orthogonalLoop=1;jettySize=auto;html=1;entryX=0.5;entryY=0;entryDx=0;entryDy=0;" edge="1" parent="WIyWlLk6GJQsqaUBKTNV-1" source="RRfECDt-pzKWjX6GJz46-55" target="RRfECDt-pzKWjX6GJz46-60">
          <mxGeometry relative="1" as="geometry">
            <mxPoint x="160" y="1280" as="targetPoint" />
          </mxGeometry>
        </mxCell>
        <mxCell id="RRfECDt-pzKWjX6GJz46-59" value="Output : customerAddress" style="edgeLabel;html=1;align=center;verticalAlign=middle;resizable=0;points=[];" vertex="1" connectable="0" parent="RRfECDt-pzKWjX6GJz46-58">
          <mxGeometry x="-0.2332" y="-2" relative="1" as="geometry">
            <mxPoint x="72" as="offset" />
          </mxGeometry>
        </mxCell>
        <mxCell id="RRfECDt-pzKWjX6GJz46-55" value="&lt;div&gt;Alright !!! Your order has been confirmed. &lt;br&gt;&lt;/div&gt;&lt;div&gt;Please provide the mailing address so that we can send it to you !!!&lt;br&gt;&lt;/div&gt;" style="rounded=1;whiteSpace=wrap;html=1;fontSize=12;glass=0;strokeWidth=1;shadow=0;" vertex="1" parent="WIyWlLk6GJQsqaUBKTNV-1">
          <mxGeometry x="-40" y="1150" width="400" height="60" as="geometry" />
        </mxCell>
        <mxCell id="RRfECDt-pzKWjX6GJz46-62" style="edgeStyle=orthogonalEdgeStyle;rounded=0;orthogonalLoop=1;jettySize=auto;html=1;exitX=0.5;exitY=1;exitDx=0;exitDy=0;" edge="1" parent="WIyWlLk6GJQsqaUBKTNV-1" source="RRfECDt-pzKWjX6GJz46-60" target="RRfECDt-pzKWjX6GJz46-61">
          <mxGeometry relative="1" as="geometry" />
        </mxCell>
        <mxCell id="RRfECDt-pzKWjX6GJz46-60" value="Thank you so much &lt;b&gt;&lt;u&gt;&lt;i&gt;$customerName&lt;/i&gt;&lt;/u&gt;&lt;/b&gt;. Please provide your contact number." style="rounded=1;whiteSpace=wrap;html=1;fontSize=12;glass=0;strokeWidth=1;shadow=0;" vertex="1" parent="WIyWlLk6GJQsqaUBKTNV-1">
          <mxGeometry x="-40" y="1290" width="400" height="60" as="geometry" />
        </mxCell>
        <mxCell id="RRfECDt-pzKWjX6GJz46-61" value="Thank you so much &lt;b&gt;&lt;u&gt;&lt;i&gt;$customerName&lt;/i&gt;&lt;/u&gt;&lt;/b&gt;. As attached is a copy of your invoice. We will proceed with delivery&amp;nbsp; to &lt;b&gt;&lt;u&gt;&lt;i&gt;$customerAddress &lt;/i&gt;&lt;/u&gt;&lt;/b&gt;on &lt;b&gt;&lt;u&gt;&lt;i&gt;$todayDate+2_days_later&lt;/i&gt;&lt;/u&gt;&lt;i&gt; .&lt;/i&gt;&lt;/b&gt;&lt;b&gt;&lt;u&gt;&lt;i&gt;&lt;br&gt;&lt;/i&gt;&lt;/u&gt;&lt;/b&gt;" style="rounded=1;whiteSpace=wrap;html=1;fontSize=12;glass=0;strokeWidth=1;shadow=0;" vertex="1" parent="WIyWlLk6GJQsqaUBKTNV-1">
          <mxGeometry x="-40" y="1400" width="400" height="60" as="geometry" />
        </mxCell>
        <mxCell id="RRfECDt-pzKWjX6GJz46-63" value="" style="shape=note;whiteSpace=wrap;html=1;backgroundOutline=1;darkOpacity=0.05;" vertex="1" parent="WIyWlLk6GJQsqaUBKTNV-1">
          <mxGeometry x="-40" y="1520" width="50" height="70" as="geometry" />
        </mxCell>
        <mxCell id="RRfECDt-pzKWjX6GJz46-65" style="edgeStyle=orthogonalEdgeStyle;rounded=0;orthogonalLoop=1;jettySize=auto;html=1;exitX=0.5;exitY=1;exitDx=0;exitDy=0;entryX=0;entryY=0;entryDx=10;entryDy=0;entryPerimeter=0;" edge="1" parent="WIyWlLk6GJQsqaUBKTNV-1" source="RRfECDt-pzKWjX6GJz46-61" target="RRfECDt-pzKWjX6GJz46-63">
          <mxGeometry relative="1" as="geometry" />
        </mxCell>
      </root>
    </mxGraphModel>
  </diagram>
</mxfile>
